<svg xmlns="http://www.w3.org/2000/svg" version="1.1" xmlns:xlink="http://www.w3.org/1999/xlink" xmlns:svgjs="http://svgjs.dev/svgjs" width="1000" height="1000" viewBox="0 0 1000 1000"><rect width="1000" height="1000" fill="#fce44d"></rect><g transform="matrix(0.7,0,0,0.7,150,281.25)"><svg viewBox="0 0 576 360" data-background-color="#fce44d" preserveAspectRatio="xMidYMid meet" height="625" width="1000" xmlns="http://www.w3.org/2000/svg" xmlns:xlink="http://www.w3.org/1999/xlink"><g id="tight-bounds" transform="matrix(1,0,0,1,0,0)"><svg viewBox="0 0 576 360" height="360" width="576"><g><svg></svg></g><g><svg viewBox="0 0 576 360" height="360" width="576"><g><path xmlns="http://www.w3.org/2000/svg" d="M132.115 90l155.885-90 155.885 90v180l-155.885 90-155.885-90z" fill="#374151" fill-rule="nonzero" stroke="none" stroke-width="1" stroke-linecap="butt" stroke-linejoin="miter" stroke-miterlimit="10" stroke-dasharray="" stroke-dashoffset="0" font-family="none" font-weight="none" font-size="none" text-anchor="none" style="mix-blend-mode: normal" data-fill-palette-color="tertiary"></path></g><g transform="matrix(1,0,0,1,203.47331460674158,99)"><svg viewBox="0 0 169.05337078651684 162" height="162" width="169.05337078651684"><g><svg viewBox="0 0 169.05337078651684 162" height="162" width="169.05337078651684"><g><svg viewBox="0 0 169.05337078651684 162" height="162" width="169.05337078651684"><g><svg viewBox="0 0 169.05337078651684 162" height="162" width="169.05337078651684"><g><svg viewBox="0 0 169.05337078651684 162" height="162" width="169.05337078651684"><g><svg viewBox="0 0 169.05337078651684 162" height="162" width="169.05337078651684"><g transform="matrix(1,0,0,1,0,0)"><svg width="169.05337078651684" viewBox="0 -35.599998474121094 37.150001525878906 35.599998474121094" height="162" data-palette-color="#fce44d"><path d="M8.75 0L0 0 11.35-30.95Q12.2-33.25 14.15-34.43 16.1-35.6 18.55-35.6L18.55-35.6Q21-35.6 22.95-34.48 24.9-33.35 25.75-31L25.75-31 37.15 0 28.1 0 25.9-6.75 11.05-6.75 8.75 0ZM17.95-27.65L13.2-13.7 23.75-13.7 19.3-27.65Q19.2-27.95 19.03-28.08 18.85-28.2 18.6-28.2L18.6-28.2Q18.35-28.2 18.18-28.05 18-27.9 17.95-27.65L17.95-27.65Z" opacity="1" transform="matrix(1,0,0,1,0,0)" fill="#fce44d" class="undefined-text-0" data-fill-palette-color="quaternary" id="text-0"></path></svg></g></svg></g></svg></g></svg></g></svg></g></svg></g></svg></g></svg></g><defs></defs></svg><rect width="576" height="360" fill="none" stroke="none" visibility="hidden"></rect></g></svg></g></svg>