<svg xmlns="http://www.w3.org/2000/svg" version="1.1" xmlns:xlink="http://www.w3.org/1999/xlink" xmlns:svgjs="http://svgjs.dev/svgjs" width="1000" height="1000" viewBox="0 0 1000 1000"><rect width="1000" height="1000" fill="#fce44d"></rect><g transform="matrix(0.7,0,0,0.7,150,218.95000000000005)"><svg viewBox="0 0 448 360" data-background-color="#fce44d" preserveAspectRatio="xMidYMid meet" height="803" width="1000" xmlns="http://www.w3.org/2000/svg" xmlns:xlink="http://www.w3.org/1999/xlink"><g id="tight-bounds" transform="matrix(1,0,0,1,0,0)"><svg viewBox="0 0 448 360" height="360" width="448"><g><svg></svg></g><g><svg viewBox="0 0 448 360" height="360" width="448"><g><path xmlns="http://www.w3.org/2000/svg" d="M193.855 44.683c1.378 0 2.494 1.116 2.495 2.494 0 1.378-1.116 2.494-2.495 2.495h-23.846l-17.167 17.167c-0.973 0.973-2.551 0.973-3.53 0-0.973-0.973-0.973-2.551 0-3.529l13.644-13.645h-40.378c-11.518 0-19.151 2.688-23.815 8.113-4.739 5.519-6.66 14.056-6.66 25.63 0 0.069 0 0.137-0.006 0.206l0.212 36.692 14.692-14.692c0.973-0.973 2.551-0.973 3.53 0 0.973 0.973 0.973 2.551 0 3.53l-18.178 18.178c0.206 35.832 0.193 71.358-0.013 107.19 25.486 25.2 50.617 50.312 75.811 75.791h25.38c1.378 0 2.494 1.116 2.495 2.495 0 1.378-1.116 2.494-2.495 2.494h-20.448l25.942 26.241 0.006-0.006c8.188 8.188 15.577 12.859 22.824 13.413 7.146 0.543 14.442-2.956 22.586-11.093l28.555-28.555h-20.722c-1.378 0-2.494-1.116-2.495-2.494 0-1.378 1.116-2.494 2.495-2.495h25.711l16.625-16.625c0.973-0.973 2.551-0.973 3.529 0 0.973 0.973 0.973 2.551 0 3.53l-13.101 13.102h40.377c11.518 0 19.151-2.688 23.815-8.113 4.739-5.519 6.66-14.056 6.66-25.63h0.013l-0.212-36.898-16.014 16.014c-0.973 0.973-2.551 0.973-3.53 0-0.973-0.973-0.973-2.551 0-3.53l19.5-19.5c-0.206-35.832-0.193-71.358 0.013-107.19-25.486-25.2-50.617-50.312-75.811-75.791h-26.147c-1.378 0-2.494-1.116-2.495-2.495 0-1.378 1.116-2.494 2.495-2.494h21.215l-25.824-26.123c-0.044-0.037-0.081-0.075-0.124-0.112-8.188-8.188-15.577-12.859-22.824-13.413-7.146-0.543-14.442 2.956-22.586 11.093l-28.555 28.555h18.858zM122.578 44.683h45.367l32.078-32.078c9.248-9.248 17.81-13.195 26.484-12.534 8.568 0.649 16.956 5.824 25.985 14.854 0.05 0.05 0.094 0.094 0.137 0.143l29.278 29.615h43.508c13.071 0 21.919 3.268 27.594 9.871 5.6 6.517 7.864 16.101 7.864 28.867 0 0.081-0.006 0.156-0.012 0.23l-0.225 39.742 28.43 28.112 0.006-0.006c9.03 9.03 14.206 17.411 14.854 25.985 0.661 8.674-3.293 17.236-12.534 26.484l-30.768 30.768 0.237 41.843h0.012c0 12.765-2.27 22.35-7.864 28.867-5.675 6.604-14.524 9.872-27.594 9.871h-45.366l-32.078 32.078c-9.248 9.248-17.81 13.195-26.484 12.534-8.568-0.649-16.956-5.824-25.985-14.854l0.006-0.006-29.421-29.758h-43.509c-13.071 0-21.919-3.268-27.594-9.872-5.6-6.517-7.864-16.101-7.863-28.866h0.012l0.231-39.972-28.293-27.969c-0.05-0.044-0.1-0.087-0.143-0.137-9.03-9.03-14.206-17.411-14.854-25.985-0.661-8.674 3.293-17.236 12.534-26.484l30.768-30.768-0.237-41.607c-0.006-0.075-0.012-0.156-0.012-0.23 0-12.765 2.27-22.35 7.864-28.867 5.675-6.604 14.524-9.872 27.594-9.871zM87.682 179.997l-0.274-47.724-27.276 27.276c-8.138 8.138-11.636 15.44-11.094 22.587 0.549 7.246 5.226 14.642 13.413 22.823 0.037 0.037 0.081 0.081 0.113 0.125l24.837 24.551 0.281-49.644zM92.303 241.483l-0.2 35.09h0.013c0 11.58 1.921 20.117 6.66 25.63 4.664 5.432 12.297 8.113 23.815 8.113h38.576l-33.55-33.936-35.308-34.903zM325.415 49.672h-38.575l33.549 33.936 35.308 34.902 0.2-34.884c-0.006-0.069-0.006-0.137-0.007-0.205 0-11.58-1.921-20.117-6.66-25.63-4.664-5.432-12.297-8.113-23.815-8.113zM360.599 130.352l-0.281 49.645 0.274 47.724 27.276-27.276c8.138-8.138 11.636-15.44 11.094-22.587-0.549-7.252-5.226-14.642-13.413-22.824l0.006-0.006-24.956-24.669z" fill="#000000" fill-rule="nonzero" stroke="none" stroke-width="1" stroke-linecap="butt" stroke-linejoin="miter" stroke-miterlimit="10" stroke-dasharray="" stroke-dashoffset="0" font-family="none" font-weight="none" font-size="none" text-anchor="none" style="mix-blend-mode: normal" data-fill-palette-color="tertiary"></path></g><g transform="matrix(1,0,0,1,139.28060995868654,90)"><svg viewBox="0 0 169.43878008262692 180" height="180" width="169.43878008262692"><g><svg viewBox="0 0 169.43878008262692 180" height="180" width="169.43878008262692"><g><svg viewBox="0 0 224 237.9620531990252" height="180" width="169.43878008262692"><g transform="matrix(1,0,0,1,0,147.0700954411048)"><svg viewBox="0 0 224 90.8919577579204" height="90.8919577579204" width="224"><g><svg viewBox="0 0 224 90.8919577579204" height="90.8919577579204" width="224"><g><svg viewBox="0 0 224 90.8919577579204" height="90.8919577579204" width="224"><g transform="matrix(1,0,0,1,0,0)"><svg width="224" viewBox="0.5 -37.79999923706055 123.08999633789062 49.94999694824219" height="90.8919577579204" data-palette-color="#374151"><path d="M9.9 0L0.5 0 2.9-8.45 2.9-14.8 6.6-16.3 13.1-35.35 26.05-35.35 34.1-12.95 37.95-5.85 37.95 0 29.1 0 26.6-8 12.05-8 9.9 0ZM19-27.15L15.35-15.7 23.85-15.7 20.05-27.15 19-27.15ZM51.25 12.15L51.25 12.15Q50 12.15 48.4 12.08 46.8 12 45.8 11.9L45.8 11.9 39.7 8.95 42.2 2.45 50.05 5Q56.7 5 56.7-0.55L56.7-0.55 56.7-1.5 56.2-1.75Q55.5-1.05 53.97-0.33 52.45 0.4 49.2 0.4L49.2 0.4Q46.85 0.4 44.65-0.78 42.45-1.95 41.07-4.55 39.7-7.15 39.7-11.3L39.7-11.3Q39.7-15.95 41.1-18.78 42.5-21.6 44.67-22.9 46.85-24.2 49.2-24.2L49.2-24.2Q51.8-24.2 53.47-23.45 55.15-22.7 55.7-22L55.7-22 55.7-23.65 64.75-23.65 65.25-20.65 64.7-17.65 64.75-0.05Q64.75 4.25 63.07 6.95 61.4 9.65 58.37 10.9 55.35 12.15 51.25 12.15ZM52.95-6.65L52.95-6.65Q53.85-6.65 54.6-6.9 55.35-7.15 55.7-7.35L55.7-7.35 55.7-16.7Q55.5-16.85 54.95-17 54.4-17.15 53.45-17.15L53.45-17.15Q51.5-17.15 50.35-15.9 49.2-14.65 49.2-11.85L49.2-11.85Q49.2-9.1 50.3-7.88 51.4-6.65 52.95-6.65ZM81.09-31.45L74.75-25.05 68.4-31.45 74.75-37.8 81.09-31.45ZM79.25 0L70.25 0 70.25-16.55 69.2-20.55 70.2-23.6 79.25-23.6 79.25 0ZM93.89 0L84.89 0 84.84-27.4 83.84-32.4 84.89-35.4 93.89-35.4 93.89 0ZM111.39 0.5L111.39 0.5Q107.54 0.5 104.54-0.65 101.54-1.8 99.84-4.5 98.14-7.2 98.14-11.8L98.14-11.8Q98.14-15.1 99.27-17.45 100.39-19.8 102.29-21.28 104.19-22.75 106.54-23.43 108.89-24.1 111.39-24.1L111.39-24.1Q115.69-24.1 118.02-23.25 120.34-22.4 121.09-21.9L121.09-21.9 123.59-13.95 122.59-10.85 107.09-10.85Q107.44-9 108.94-7.75 110.44-6.5 113.89-6.5L113.89-6.5Q116.59-6.5 118.54-7.1 120.49-7.7 121.59-8.15L121.59-8.15 121.59-1.45Q120.09-0.65 117.27-0.08 114.44 0.5 111.39 0.5ZM107.14-14.05L107.14-14.05 114.04-15.05 113.59-17.2Q113.24-17.4 112.56-17.5 111.89-17.6 111.39-17.6L111.39-17.6Q109.99-17.6 109.06-17 108.14-16.4 107.67-15.58 107.19-14.75 107.14-14.05Z" opacity="1" transform="matrix(1,0,0,1,0,0)" fill="#374151" class="undefined-text-0" data-fill-palette-color="primary" id="text-0"></path></svg></g></svg></g></svg></g></svg></g><g transform="matrix(1,0,0,1,67.59867674086345,0)"><svg viewBox="0 0 88.80264651827311 125.61268562144598" height="125.61268562144598" width="88.80264651827311"><g><svg xmlns="http://www.w3.org/2000/svg" xmlns:xlink="http://www.w3.org/1999/xlink" version="1.1" x="0" y="0" viewBox="0.3600006103515625 0.35900020599365234 73.9780044555664 104.64300537109375" enable-background="new 0 0 74.699 105.363" xml:space="preserve" width="88.80264651827311" height="125.61268562144598" class="icon-icon-0" data-fill-palette-color="accent" id="icon-0"><g fill="#000000" data-fill-palette-color="accent"><path d="M66.938 31.03H41.951V14.214c1.877-1.408 3.115-3.629 3.115-6.148 0-4.254-3.457-7.707-7.71-7.707-4.254 0-7.707 3.453-7.707 7.707 0 2.52 1.235 4.74 3.107 6.148V31.03h-25c-4.081 0-7.396 3.312-7.396 7.396v59.176c0 4.09 3.315 7.4 7.396 7.4h59.182c4.09 0 7.4-3.312 7.4-7.4V38.427C74.338 34.341 71.027 31.03 66.938 31.03zM65.141 95.815H9.558V40.229h55.583V95.815z" fill="#000000" data-fill-palette-color="accent"></path><path d="M26.276 61.519c2.55 0 4.622-2.066 4.622-4.616 0-2.555-2.072-4.622-4.622-4.622-2.559 0-4.625 2.067-4.625 4.622C21.651 59.452 23.718 61.519 26.276 61.519z" fill="#000000" data-fill-palette-color="accent"></path><path d="M48.426 61.519c2.549 0 4.621-2.066 4.621-4.616 0-2.555-2.072-4.622-4.621-4.622-2.559 0-4.626 2.067-4.626 4.622C43.8 59.452 45.868 61.519 48.426 61.519z" fill="#000000" data-fill-palette-color="accent"></path><path d="M48.426 78.215h-22.15c-2.541 0-4.594 2.062-4.594 4.604 0 2.532 2.054 4.586 4.594 4.586h22.15c2.541 0 4.604-2.054 4.604-4.586C53.029 80.278 50.967 78.215 48.426 78.215z" fill="#000000" data-fill-palette-color="accent"></path></g></svg></g></svg></g><g></g></svg></g></svg></g></svg></g></svg></g><defs></defs></svg><rect width="448" height="360" fill="none" stroke="none" visibility="hidden"></rect></g></svg></g></svg>